<svg width="258" height="18" viewBox="0 0 258 18" fill="none" xmlns="http://www.w3.org/2000/svg">
<path d="M5.508 14.17C4.47667 14.17 3.59267 13.9887 2.856 13.626C2.11933 13.2633 1.55833 12.742 1.173 12.062C0.787667 11.3707 0.595 10.5433 0.595 9.58C0.595 8.60533 0.787667 7.778 1.173 7.098C1.55833 6.418 2.11933 5.89667 2.856 5.534C3.59267 5.17133 4.47667 4.99 5.508 4.99C6.02933 4.99 6.51667 5.041 6.97 5.143C7.42333 5.245 7.86533 5.40933 8.296 5.636L7.922 7.421C7.52533 7.20567 7.14 7.05267 6.766 6.962C6.40333 6.86 6.04067 6.809 5.678 6.809C4.81667 6.809 4.148 7.047 3.672 7.523C3.20733 7.999 2.975 8.68467 2.975 9.58C2.975 10.464 3.20733 11.1497 3.672 11.637C4.148 12.113 4.81667 12.351 5.678 12.351C6.04067 12.351 6.40333 12.3057 6.766 12.215C7.14 12.113 7.52533 11.9543 7.922 11.739L8.296 13.524C7.86533 13.7507 7.42333 13.915 6.97 14.017C6.51667 14.119 6.02933 14.17 5.508 14.17ZM14.2151 14.17C12.7644 14.17 11.6424 13.7733 10.8491 12.98C10.0671 12.1867 9.67605 11.0533 9.67605 9.58C9.67605 8.10667 10.0671 6.97333 10.8491 6.18C11.6424 5.38667 12.7644 4.99 14.2151 4.99C15.6657 4.99 16.7821 5.38667 17.5641 6.18C18.3461 6.97333 18.7371 8.10667 18.7371 9.58C18.7371 11.0533 18.3461 12.1867 17.5641 12.98C16.7821 13.7733 15.6657 14.17 14.2151 14.17ZM14.2151 12.351C14.9404 12.351 15.4844 12.1187 15.8471 11.654C16.2211 11.1893 16.4081 10.498 16.4081 9.58C16.4081 8.662 16.2211 7.97067 15.8471 7.506C15.4844 7.04133 14.9404 6.809 14.2151 6.809C13.5011 6.809 12.9514 7.04133 12.5661 7.506C12.1921 7.97067 12.0051 8.662 12.0051 9.58C12.0051 10.498 12.1921 11.1893 12.5661 11.654C12.9514 12.1187 13.5011 12.351 14.2151 12.351ZM20.4972 14V5.16H22.7242L22.7412 6.197H22.7752C23.1379 5.789 23.5572 5.48867 24.0332 5.296C24.5206 5.092 25.0816 4.99 25.7162 4.99C26.7816 4.99 27.5636 5.279 28.0622 5.857C28.5722 6.42367 28.8272 7.32467 28.8272 8.56V14H26.4982V9.019C26.4982 8.28233 26.3736 7.74967 26.1242 7.421C25.8749 7.081 25.4782 6.911 24.9342 6.911C24.5262 6.911 24.1636 6.996 23.8462 7.166C23.5289 7.32467 23.2796 7.54567 23.0982 7.829C22.9282 8.101 22.8432 8.424 22.8432 8.798V14H20.4972ZM34.7362 14.17C33.6708 14.17 32.9002 13.9547 32.4242 13.524C31.9595 13.0933 31.7272 12.385 31.7272 11.399V6.979H29.8062V5.16H31.7272V2.27H34.0732V5.16H36.9462V6.979H34.0732V10.821C34.0732 11.3537 34.1582 11.7277 34.3282 11.943C34.4982 12.147 34.8042 12.249 35.2462 12.249C35.4842 12.249 35.7335 12.2263 35.9942 12.181C36.2662 12.1357 36.5155 12.0733 36.7422 11.994L36.9292 13.847C36.5438 13.9603 36.1755 14.0397 35.8242 14.085C35.4728 14.1417 35.1102 14.17 34.7362 14.17ZM41.0168 14.17C40.1441 14.17 39.4528 13.9263 38.9428 13.439C38.4441 12.9517 38.1948 12.3 38.1948 11.484C38.1948 10.464 38.5914 9.67633 39.3848 9.121C40.1894 8.56567 41.3284 8.288 42.8018 8.288H43.9748C43.9748 7.89133 43.9238 7.58533 43.8218 7.37C43.7311 7.15467 43.5668 7.00733 43.3288 6.928C43.1021 6.83733 42.7734 6.792 42.3428 6.792C41.7761 6.792 41.1868 6.85433 40.5748 6.979C39.9628 7.09233 39.3848 7.25667 38.8407 7.472L38.5518 5.67C39.1411 5.45467 39.7928 5.29033 40.5068 5.177C41.2321 5.05233 41.9518 4.99 42.6658 4.99C43.5724 4.99 44.2864 5.09767 44.8078 5.313C45.3291 5.52833 45.7088 5.891 45.9468 6.401C46.1848 6.89967 46.3037 7.574 46.3037 8.424V14H44.0768L44.0428 12.98H44.0258C43.7084 13.3427 43.2721 13.6317 42.7167 13.847C42.1614 14.0623 41.5948 14.17 41.0168 14.17ZM41.8668 12.402C42.2634 12.402 42.6204 12.334 42.9378 12.198C43.2551 12.062 43.5044 11.875 43.6858 11.637C43.8784 11.3877 43.9748 11.1157 43.9748 10.821V9.818H43.1418C42.2238 9.818 41.5381 9.937 41.0848 10.175C40.6314 10.4017 40.4048 10.7587 40.4048 11.246C40.4048 11.6087 40.5294 11.892 40.7788 12.096C41.0394 12.3 41.4021 12.402 41.8668 12.402ZM52.756 14.17C51.7247 14.17 50.8407 13.9887 50.104 13.626C49.3674 13.2633 48.8064 12.742 48.421 12.062C48.0357 11.3707 47.843 10.5433 47.843 9.58C47.843 8.60533 48.0357 7.778 48.421 7.098C48.8064 6.418 49.3674 5.89667 50.104 5.534C50.8407 5.17133 51.7247 4.99 52.756 4.99C53.2774 4.99 53.7647 5.041 54.218 5.143C54.6714 5.245 55.1134 5.40933 55.544 5.636L55.17 7.421C54.7734 7.20567 54.388 7.05267 54.014 6.962C53.6514 6.86 53.2887 6.809 52.926 6.809C52.0647 6.809 51.396 7.047 50.92 7.523C50.4554 7.999 50.223 8.68467 50.223 9.58C50.223 10.464 50.4554 11.1497 50.92 11.637C51.396 12.113 52.0647 12.351 52.926 12.351C53.2887 12.351 53.6514 12.3057 54.014 12.215C54.388 12.113 54.7734 11.9543 55.17 11.739L55.544 13.524C55.1134 13.7507 54.6714 13.915 54.218 14.017C53.7647 14.119 53.2774 14.17 52.756 14.17ZM61.5809 14.17C60.5156 14.17 59.7449 13.9547 59.2689 13.524C58.8042 13.0933 58.5719 12.385 58.5719 11.399V6.979H56.6509V5.16H58.5719V2.27H60.9179V5.16H63.7909V6.979H60.9179V10.821C60.9179 11.3537 61.0029 11.7277 61.1729 11.943C61.3429 12.147 61.6489 12.249 62.0909 12.249C62.3289 12.249 62.5782 12.2263 62.8389 12.181C63.1109 12.1357 63.3602 12.0733 63.5869 11.994L63.7739 13.847C63.3886 13.9603 63.0202 14.0397 62.6689 14.085C62.3176 14.1417 61.9549 14.17 61.5809 14.17ZM66.2141 7.761V5.16H68.8151V7.761H66.2141ZM66.2141 14V11.399H68.8151V14H66.2141ZM71.832 3.749V1.59H74.212V3.749H71.832ZM71.832 14V5.279H74.212V14H71.832ZM75.9965 14L78.6995 9.563L76.0135 5.16H78.5635L80.2805 8.339H80.3145L82.0315 5.16H84.5815L81.9125 9.563L84.6155 14H82.0655L80.3145 10.787H80.2805L78.5465 14H75.9965ZM87.3906 17.57L88.8526 13.949L85.3676 5.177L87.8666 5.16L90.0086 11.705H90.0426L92.2016 5.16H94.7176L89.8556 17.57H87.3906ZM96.0537 3.749V1.59H98.4337V3.749H96.0537ZM96.0537 14V5.279H98.4337V14H96.0537ZM100.915 14V5.16H103.142L103.159 6.197H103.193C103.556 5.789 103.975 5.48867 104.451 5.296C104.939 5.092 105.5 4.99 106.134 4.99C107.2 4.99 107.982 5.279 108.48 5.857C108.99 6.42367 109.245 7.32467 109.245 8.56V14H106.916V9.019C106.916 8.28233 106.792 7.74967 106.542 7.421C106.293 7.081 105.896 6.911 105.352 6.911C104.944 6.911 104.582 6.996 104.264 7.166C103.947 7.32467 103.698 7.54567 103.516 7.829C103.346 8.101 103.261 8.424 103.261 8.798V14H100.915ZM112.502 14V7.319H110.309V5.5H112.502V4.259C112.502 3.15967 112.78 2.32667 113.335 1.76C113.89 1.19333 114.706 0.909999 115.783 0.909999C116.1 0.909999 116.418 0.932666 116.735 0.977999C117.052 1.02333 117.347 1.08567 117.619 1.165L117.347 3.001C116.939 2.87633 116.548 2.814 116.174 2.814C115.687 2.814 115.341 2.92733 115.137 3.154C114.944 3.38067 114.848 3.77733 114.848 4.344V5.5H117.551V7.319H114.848V14H112.502ZM122.573 14.17C121.123 14.17 120.001 13.7733 119.207 12.98C118.425 12.1867 118.034 11.0533 118.034 9.58C118.034 8.10667 118.425 6.97333 119.207 6.18C120.001 5.38667 121.123 4.99 122.573 4.99C124.024 4.99 125.14 5.38667 125.922 6.18C126.704 6.97333 127.095 8.10667 127.095 9.58C127.095 11.0533 126.704 12.1867 125.922 12.98C125.14 13.7733 124.024 14.17 122.573 14.17ZM122.573 12.351C123.299 12.351 123.843 12.1187 124.205 11.654C124.579 11.1893 124.766 10.498 124.766 9.58C124.766 8.662 124.579 7.97067 124.205 7.506C123.843 7.04133 123.299 6.809 122.573 6.809C121.859 6.809 121.31 7.04133 120.924 7.506C120.55 7.97067 120.363 8.662 120.363 9.58C120.363 10.498 120.55 11.1893 120.924 11.654C121.31 12.1187 121.859 12.351 122.573 12.351ZM132.494 14.17C131.077 14.17 129.757 13.8527 128.533 13.218L129.043 11.246C129.473 11.4613 129.864 11.637 130.216 11.773C130.567 11.8977 130.907 11.9883 131.236 12.045C131.576 12.1017 131.921 12.13 132.273 12.13C133.157 12.13 133.831 11.96 134.296 11.62C134.76 11.28 134.993 10.787 134.993 10.141C134.993 9.699 134.868 9.342 134.619 9.07C134.381 8.78667 133.99 8.58833 133.446 8.475C132.913 8.35033 132.199 8.288 131.304 8.288H130.08V6.35L133.871 3.664V3.63H128.669V1.59H137.084V3.63L133.072 6.503V6.537H133.718C134.885 6.537 135.797 6.86 136.455 7.506C137.112 8.14067 137.441 9.019 137.441 10.141C137.441 11.433 137.01 12.4303 136.149 13.133C135.287 13.8243 134.069 14.17 132.494 14.17ZM143.5 14.17C142.084 14.17 140.763 13.8527 139.539 13.218L140.049 11.246C140.48 11.4613 140.871 11.637 141.222 11.773C141.574 11.8977 141.914 11.9883 142.242 12.045C142.582 12.1017 142.928 12.13 143.279 12.13C144.163 12.13 144.838 11.96 145.302 11.62C145.767 11.28 145.999 10.787 145.999 10.141C145.999 9.699 145.875 9.342 145.625 9.07C145.387 8.78667 144.996 8.58833 144.452 8.475C143.92 8.35033 143.206 8.288 142.31 8.288H141.086V6.35L144.877 3.664V3.63H139.675V1.59H148.09V3.63L144.078 6.503V6.537H144.724C145.892 6.537 146.804 6.86 147.461 7.506C148.119 8.14067 148.447 9.019 148.447 10.141C148.447 11.433 148.017 12.4303 147.155 13.133C146.294 13.8243 145.076 14.17 143.5 14.17ZM154.507 14.17C153.091 14.17 151.77 13.8527 150.546 13.218L151.056 11.246C151.487 11.4613 151.878 11.637 152.229 11.773C152.581 11.8977 152.921 11.9883 153.249 12.045C153.589 12.1017 153.935 12.13 154.286 12.13C155.17 12.13 155.845 11.96 156.309 11.62C156.774 11.28 157.006 10.787 157.006 10.141C157.006 9.699 156.882 9.342 156.632 9.07C156.394 8.78667 156.003 8.58833 155.459 8.475C154.927 8.35033 154.213 8.288 153.317 8.288H152.093V6.35L155.884 3.664V3.63H150.682V1.59H159.097V3.63L155.085 6.503V6.537H155.731C156.899 6.537 157.811 6.86 158.468 7.506C159.126 8.14067 159.454 9.019 159.454 10.141C159.454 11.433 159.024 12.4303 158.162 13.133C157.301 13.8243 156.083 14.17 154.507 14.17ZM167.826 15.938C166.885 15.938 166.018 15.7793 165.225 15.462C164.443 15.1447 163.763 14.697 163.185 14.119C162.607 13.5523 162.154 12.8837 161.825 12.113C161.508 11.3423 161.349 10.498 161.349 9.58C161.349 8.662 161.508 7.81767 161.825 7.047C162.154 6.265 162.607 5.59067 163.185 5.024C163.763 4.45733 164.443 4.01533 165.225 3.698C166.018 3.38067 166.885 3.222 167.826 3.222C168.767 3.222 169.628 3.38067 170.41 3.698C171.203 4.01533 171.889 4.45733 172.467 5.024C173.045 5.59067 173.493 6.265 173.81 7.047C174.127 7.81767 174.286 8.662 174.286 9.58C174.286 10.7813 174.02 11.8467 173.487 12.776H169.05L169.033 11.926H168.999C168.75 12.2547 168.455 12.504 168.115 12.674C167.775 12.844 167.395 12.929 166.976 12.929C166.183 12.929 165.542 12.6343 165.055 12.045C164.579 11.4557 164.341 10.634 164.341 9.58C164.341 8.53733 164.579 7.72133 165.055 7.132C165.542 6.53133 166.183 6.231 166.976 6.231C167.395 6.231 167.775 6.316 168.115 6.486C168.455 6.64467 168.75 6.894 168.999 7.234H169.033L169.05 6.265H171.022V11.314H173.113L172.161 11.858C172.331 11.5407 172.461 11.1893 172.552 10.804C172.643 10.4073 172.688 9.99933 172.688 9.58C172.688 8.61667 172.484 7.77233 172.076 7.047C171.668 6.31033 171.096 5.738 170.359 5.33C169.634 4.91067 168.789 4.701 167.826 4.701C166.874 4.701 166.03 4.91067 165.293 5.33C164.556 5.738 163.978 6.31033 163.559 7.047C163.151 7.78367 162.947 8.628 162.947 9.58C162.947 10.532 163.151 11.3763 163.559 12.113C163.978 12.8497 164.556 13.4277 165.293 13.847C166.03 14.255 166.874 14.459 167.826 14.459C168.438 14.459 169.01 14.3683 169.543 14.187C170.076 14.0057 170.546 13.7507 170.954 13.422L171.906 14.595C171.351 15.0257 170.727 15.3543 170.036 15.581C169.356 15.819 168.619 15.938 167.826 15.938ZM167.69 11.314C168.087 11.314 168.398 11.1723 168.625 10.889C168.863 10.5943 168.982 10.192 168.982 9.682V9.478C168.982 8.968 168.863 8.57133 168.625 8.288C168.398 7.99333 168.087 7.846 167.69 7.846C167.282 7.846 166.959 7.999 166.721 8.305C166.494 8.59967 166.381 9.02467 166.381 9.58C166.381 10.1353 166.494 10.566 166.721 10.872C166.959 11.1667 167.282 11.314 167.69 11.314ZM179.723 17.74C179.009 17.74 178.329 17.672 177.683 17.536C177.037 17.4 176.498 17.2073 176.068 16.958L176.357 15.19C176.776 15.4167 177.263 15.598 177.819 15.734C178.385 15.87 178.941 15.938 179.485 15.938C180.437 15.938 181.111 15.7057 181.508 15.241C181.916 14.7877 182.12 14.034 182.12 12.98V12.521H182.086C181.734 12.9063 181.326 13.1953 180.862 13.388C180.397 13.5693 179.881 13.66 179.315 13.66C178.136 13.66 177.224 13.2803 176.578 12.521C175.932 11.7617 175.609 10.6963 175.609 9.325C175.609 7.95367 175.932 6.88833 176.578 6.129C177.224 5.36967 178.136 4.99 179.315 4.99C179.881 4.99 180.408 5.08633 180.896 5.279C181.394 5.47167 181.819 5.755 182.171 6.129H182.205L182.222 5.16H184.449V12.98C184.449 14.5893 184.058 15.785 183.276 16.567C182.505 17.349 181.321 17.74 179.723 17.74ZM179.995 11.79C180.414 11.79 180.777 11.7163 181.083 11.569C181.4 11.4217 181.649 11.2233 181.831 10.974C182.023 10.7133 182.12 10.4187 182.12 10.09V8.56C182.12 8.23133 182.023 7.94233 181.831 7.693C181.649 7.43233 181.4 7.22833 181.083 7.081C180.777 6.93367 180.414 6.86 179.995 6.86C179.337 6.86 178.822 7.07533 178.448 7.506C178.085 7.93667 177.904 8.543 177.904 9.325C177.904 10.1183 178.085 10.7303 178.448 11.161C178.822 11.5803 179.337 11.79 179.995 11.79ZM186.812 14V5.16H188.988L189.022 6.197H189.056C189.384 5.80033 189.758 5.5 190.178 5.296C190.608 5.092 191.113 4.99 191.691 4.99C192.257 4.99 192.739 5.092 193.136 5.296C193.532 5.5 193.816 5.80033 193.986 6.197H194.02C194.371 5.77767 194.768 5.47167 195.21 5.279C195.652 5.08633 196.167 4.99 196.757 4.99C197.697 4.99 198.377 5.23933 198.797 5.738C199.227 6.23667 199.443 7.02433 199.443 8.101V14H197.165V8.679C197.165 8.067 197.068 7.61933 196.876 7.336C196.683 7.05267 196.371 6.911 195.941 6.911C195.431 6.911 195.028 7.08667 194.734 7.438C194.439 7.778 194.292 8.23133 194.292 8.798V14H191.997V8.56C191.997 8.016 191.889 7.608 191.674 7.336C191.47 7.05267 191.164 6.911 190.756 6.911C190.45 6.911 190.172 6.996 189.923 7.166C189.673 7.32467 189.475 7.54567 189.328 7.829C189.18 8.11233 189.107 8.43533 189.107 8.798V14H186.812ZM203.695 14.17C202.823 14.17 202.131 13.9263 201.621 13.439C201.123 12.9517 200.873 12.3 200.873 11.484C200.873 10.464 201.27 9.67633 202.063 9.121C202.868 8.56567 204.007 8.288 205.48 8.288H206.653C206.653 7.89133 206.602 7.58533 206.5 7.37C206.41 7.15467 206.245 7.00733 206.007 6.928C205.781 6.83733 205.452 6.792 205.021 6.792C204.455 6.792 203.865 6.85433 203.253 6.979C202.641 7.09233 202.063 7.25667 201.519 7.472L201.23 5.67C201.82 5.45467 202.471 5.29033 203.185 5.177C203.911 5.05233 204.63 4.99 205.344 4.99C206.251 4.99 206.965 5.09767 207.486 5.313C208.008 5.52833 208.387 5.891 208.625 6.401C208.863 6.89967 208.982 7.574 208.982 8.424V14H206.755L206.721 12.98H206.704C206.387 13.3427 205.951 13.6317 205.395 13.847C204.84 14.0623 204.273 14.17 203.695 14.17ZM204.545 12.402C204.942 12.402 205.299 12.334 205.616 12.198C205.934 12.062 206.183 11.875 206.364 11.637C206.557 11.3877 206.653 11.1157 206.653 10.821V9.818H205.82C204.902 9.818 204.217 9.937 203.763 10.175C203.31 10.4017 203.083 10.7587 203.083 11.246C203.083 11.6087 203.208 11.892 203.457 12.096C203.718 12.3 204.081 12.402 204.545 12.402ZM211.219 3.749V1.59H213.599V3.749H211.219ZM211.219 14V5.279H213.599V14H211.219ZM216.133 14V1.59H218.513V14H216.133ZM221.266 14V11.399H223.867V14H221.266ZM230.36 14.17C229.328 14.17 228.444 13.9887 227.708 13.626C226.971 13.2633 226.41 12.742 226.025 12.062C225.639 11.3707 225.447 10.5433 225.447 9.58C225.447 8.60533 225.639 7.778 226.025 7.098C226.41 6.418 226.971 5.89667 227.708 5.534C228.444 5.17133 229.328 4.99 230.36 4.99C230.881 4.99 231.368 5.041 231.822 5.143C232.275 5.245 232.717 5.40933 233.148 5.636L232.774 7.421C232.377 7.20567 231.992 7.05267 231.618 6.962C231.255 6.86 230.892 6.809 230.53 6.809C229.668 6.809 229 7.047 228.524 7.523C228.059 7.999 227.827 8.68467 227.827 9.58C227.827 10.464 228.059 11.1497 228.524 11.637C229 12.113 229.668 12.351 230.53 12.351C230.892 12.351 231.255 12.3057 231.618 12.215C231.992 12.113 232.377 11.9543 232.774 11.739L233.148 13.524C232.717 13.7507 232.275 13.915 231.822 14.017C231.368 14.119 230.881 14.17 230.36 14.17ZM239.067 14.17C237.616 14.17 236.494 13.7733 235.701 12.98C234.919 12.1867 234.528 11.0533 234.528 9.58C234.528 8.10667 234.919 6.97333 235.701 6.18C236.494 5.38667 237.616 4.99 239.067 4.99C240.517 4.99 241.634 5.38667 242.416 6.18C243.198 6.97333 243.589 8.10667 243.589 9.58C243.589 11.0533 243.198 12.1867 242.416 12.98C241.634 13.7733 240.517 14.17 239.067 14.17ZM239.067 12.351C239.792 12.351 240.336 12.1187 240.699 11.654C241.073 11.1893 241.26 10.498 241.26 9.58C241.26 8.662 241.073 7.97067 240.699 7.506C240.336 7.04133 239.792 6.809 239.067 6.809C238.353 6.809 237.803 7.04133 237.418 7.506C237.044 7.97067 236.857 8.662 236.857 9.58C236.857 10.498 237.044 11.1893 237.418 11.654C237.803 12.1187 238.353 12.351 239.067 12.351ZM245.349 14V5.16H247.525L247.559 6.197H247.593C247.921 5.80033 248.295 5.5 248.715 5.296C249.145 5.092 249.65 4.99 250.228 4.99C250.794 4.99 251.276 5.092 251.673 5.296C252.069 5.5 252.353 5.80033 252.523 6.197H252.557C252.908 5.77767 253.305 5.47167 253.747 5.279C254.189 5.08633 254.704 4.99 255.294 4.99C256.234 4.99 256.914 5.23933 257.334 5.738C257.764 6.23667 257.98 7.02433 257.98 8.101V14H255.702V8.679C255.702 8.067 255.605 7.61933 255.413 7.336C255.22 7.05267 254.908 6.911 254.478 6.911C253.968 6.911 253.565 7.08667 253.271 7.438C252.976 7.778 252.829 8.23133 252.829 8.798V14H250.534V8.56C250.534 8.016 250.426 7.608 250.211 7.336C250.007 7.05267 249.701 6.911 249.293 6.911C248.987 6.911 248.709 6.996 248.46 7.166C248.21 7.32467 248.012 7.54567 247.865 7.829C247.717 8.11233 247.644 8.43533 247.644 8.798V14H245.349Z" fill="#333333"/>
</svg>
