<?xml version="1.0" encoding="UTF-8"?><svg id="_イヤー_2" xmlns="http://www.w3.org/2000/svg" viewBox="0 0 253.62 28.46"><defs></defs><g id="_イヤー_1-2"><g><path class="cls-1" d="M2.03,.61V3.75H0V.61H2.03Zm0,23.61H0V7.63H2.03V24.22Z"/><path class="cls-1" d="M15.22,15.74l4.16,8.48h-2.43l-2.94-6.3-2.94,6.3h-2.43l4.26-8.48-3.96-8.11h2.43l2.64,6.05,2.64-6.05h2.44l-3.85,8.11Z"/><path class="cls-1" d="M21.51,7.63h2.23l3.45,11.38h.1l2.94-11.38h2.23l-4.67,17.44c-.61,2.26-1.69,3.39-3.25,3.39-.75,0-1.35-.12-1.83-.36v-2.42c.54,.32,1.05,.48,1.52,.48,1.01,0,1.72-.97,2.13-2.91l-4.87-15.62Z"/><path class="cls-1" d="M40.98,.61V3.75h-2.03V.61h2.03Zm0,23.61h-2.03V7.63h2.03V24.22Z"/><path class="cls-1" d="M55.39,10.54c-.41-.48-.95-.73-1.62-.73-.74,0-1.49,.44-2.23,1.33-.95,1.13-1.42,2.58-1.42,4.36v8.72h-2.03V7.63h2.03v3.15c.34-.56,.74-1.13,1.22-1.7,.81-.97,1.83-1.45,3.04-1.45,1.08,0,1.96,.4,2.64,1.21,.68,.81,1.01,1.9,1.01,3.27v12.11h-2.03V12.35c0-.73-.2-1.33-.61-1.82Z"/><path class="cls-1" d="M66.25,7.63h4.16v1.94h-4.16v14.65h-2.03V9.57h-3.45v-1.94h3.45v-3.03c0-2.66,1.25-4,3.75-4,1.49,0,2.57,.2,3.25,.61V3.63c-.61-.4-1.72-.65-3.35-.73-1.08-.08-1.62,.44-1.62,1.57v3.15Z"/><path class="cls-1" d="M79.03,7.63c1.42,0,2.67,.65,3.75,1.94,1.08,1.29,1.62,3.43,1.62,6.42s-.54,5.01-1.62,6.3c-1.08,1.29-2.33,1.94-3.75,1.94s-2.77-.65-3.85-1.94c-1.08-1.29-1.62-3.39-1.62-6.3s.54-5.13,1.62-6.42c1.08-1.29,2.37-1.94,3.85-1.94Zm-2.13,3.27c-.75,.89-1.12,2.58-1.12,5.09s.37,4.08,1.12,4.96c.61,.73,1.32,1.09,2.13,1.09,.74,0,1.42-.36,2.03-1.09,.74-.89,1.12-2.54,1.12-4.96s-.37-4.2-1.12-5.09c-.61-.73-1.29-1.09-2.03-1.09-.81,0-1.52,.36-2.13,1.09Z"/><path class="cls-1" d="M89.88,21.07c.47,.57,1.12,.85,1.93,.85,.67,0,1.32-.36,1.93-1.09,.61-.73,.91-1.94,.91-3.63,0-1.29-.37-2.38-1.12-3.27-.54-.65-1.35-.93-2.44-.85v-2.06c1.08-.08,1.89-.44,2.44-1.09,.54-.65,.81-1.61,.81-2.91,0-1.61-.3-2.79-.91-3.51-.41-.48-.91-.73-1.52-.73s-1.12,.24-1.52,.73c-.68,.81-1.05,2.02-1.12,3.63h-2.23c.07-2.1,.64-3.79,1.72-5.09,.81-.97,1.86-1.45,3.14-1.45,1.35,0,2.44,.48,3.25,1.45,.95,1.13,1.42,2.62,1.42,4.48,0,1.7-.37,2.99-1.12,3.88-.68,.81-1.32,1.33-1.93,1.57,.88,.32,1.55,.77,2.03,1.33,.95,1.13,1.42,2.5,1.42,4.12,0,2.1-.54,3.8-1.62,5.09-.95,1.13-2.13,1.7-3.55,1.7-1.56,0-2.77-.52-3.65-1.57-1.01-1.21-1.52-3.03-1.52-5.45h2.33c-.07,1.78,.24,3.07,.91,3.88Z"/><path class="cls-1" d="M102.87,21.07c.47,.57,1.12,.85,1.93,.85,.67,0,1.32-.36,1.93-1.09,.61-.73,.91-1.94,.91-3.63,0-1.29-.37-2.38-1.12-3.27-.54-.65-1.35-.93-2.44-.85v-2.06c1.08-.08,1.89-.44,2.44-1.09,.54-.65,.81-1.61,.81-2.91,0-1.61-.3-2.79-.91-3.51-.41-.48-.91-.73-1.52-.73s-1.12,.24-1.52,.73c-.68,.81-1.05,2.02-1.12,3.63h-2.23c.07-2.1,.64-3.79,1.72-5.09,.81-.97,1.86-1.45,3.14-1.45,1.35,0,2.44,.48,3.25,1.45,.95,1.13,1.42,2.62,1.42,4.48,0,1.7-.37,2.99-1.12,3.88-.68,.81-1.32,1.33-1.93,1.57,.88,.32,1.55,.77,2.03,1.33,.95,1.13,1.42,2.5,1.42,4.12,0,2.1-.54,3.8-1.62,5.09-.95,1.13-2.13,1.7-3.55,1.7-1.56,0-2.77-.52-3.65-1.57-1.01-1.21-1.52-3.03-1.52-5.45h2.33c-.07,1.78,.24,3.07,.91,3.88Z"/><path class="cls-1" d="M115.85,21.07c.47,.57,1.12,.85,1.93,.85,.67,0,1.32-.36,1.93-1.09,.61-.73,.91-1.94,.91-3.63,0-1.29-.37-2.38-1.12-3.27-.54-.65-1.35-.93-2.44-.85v-2.06c1.08-.08,1.89-.44,2.44-1.09,.54-.65,.81-1.61,.81-2.91,0-1.61-.3-2.79-.91-3.51-.41-.48-.91-.73-1.52-.73s-1.12,.24-1.52,.73c-.68,.81-1.05,2.02-1.12,3.63h-2.23c.07-2.1,.64-3.79,1.72-5.09,.81-.97,1.86-1.45,3.14-1.45,1.35,0,2.44,.48,3.25,1.45,.95,1.13,1.42,2.62,1.42,4.48,0,1.7-.37,2.99-1.12,3.88-.68,.81-1.32,1.33-1.93,1.57,.88,.32,1.55,.77,2.03,1.33,.95,1.13,1.42,2.5,1.42,4.12,0,2.1-.54,3.8-1.62,5.09-.95,1.13-2.13,1.7-3.55,1.7-1.56,0-2.77-.52-3.65-1.57-1.01-1.21-1.52-3.03-1.52-5.45h2.33c-.07,1.78,.24,3.07,.91,3.88Z"/><path class="cls-1" d="M133.71,2.42c-.75-.89-1.49-1.33-2.23-1.33-.81,0-1.59,.44-2.33,1.33-2.03,2.42-3.04,6.42-3.04,11.99,0,4.36,.74,7.43,2.23,9.2,.95,1.13,1.89,1.7,2.84,1.7,1.08,0,2.1-.69,3.04-2.06l.51,.85c-1.01,1.53-2.23,2.3-3.65,2.3-1.22,0-2.3-.57-3.25-1.7-1.83-2.18-2.74-5.61-2.74-10.29,0-5.81,1.15-10.09,3.45-12.84,.88-1.05,1.86-1.57,2.94-1.57s2.06,.53,2.94,1.57c1.55,1.86,2.33,4.84,2.33,8.96,0,4.68-.61,7.75-1.83,9.2-.47,.57-.98,.85-1.52,.85-.74,0-1.25-.48-1.52-1.45-.68,.97-1.35,1.45-2.03,1.45-.54,0-.98-.2-1.32-.61-.75-.89-1.12-2.5-1.12-4.84,0-4.12,.71-7.02,2.13-8.72,.47-.56,1.01-.85,1.62-.85,.68,0,1.22,.48,1.62,1.45l.51-1.21h1.12l-1.42,11.62c-.14,.97,.1,1.45,.71,1.45,.27,0,.54-.16,.81-.48,.88-1.05,1.32-3.67,1.32-7.87,0-3.71-.71-6.42-2.13-8.11Zm-1.72,5.33c-.2-.24-.44-.36-.71-.36-.34,0-.61,.12-.81,.36-.95,1.13-1.42,3.55-1.42,7.27,0,1.78,.17,2.87,.51,3.27,.2,.24,.41,.36,.61,.36,.27,0,.47-.08,.61-.24,.54-.65,.84-1.33,.91-2.06l.71-6.78c0-.89-.14-1.49-.41-1.82Z"/><path class="cls-1" d="M139.49,13.08c0-1.77,.41-3.15,1.22-4.12,.74-.89,1.69-1.33,2.84-1.33s2.06,.4,2.74,1.21c1.01-.97,2.13-1.37,3.35-1.21v2.3c-.95-.32-1.86-.32-2.74,0,.47,.65,.71,1.7,.71,3.15,0,1.53-.41,2.79-1.22,3.75-.75,.89-1.69,1.33-2.84,1.33-.61,0-1.18-.16-1.72-.48-.61,.4-.91,.85-.91,1.33,0,.32,.13,.65,.41,.97,.34,.4,1.28,.61,2.84,.61,2.1,0,3.48,.4,4.16,1.21,.61,.73,.91,1.53,.91,2.42,0,1.05-.3,1.94-.91,2.66-.81,.97-2.27,1.45-4.36,1.45-2.23,0-3.75-.48-4.57-1.45-.54-.65-.81-1.33-.81-2.06,0-1.05,.61-2.02,1.83-2.91-.88-.56-1.32-1.37-1.32-2.42s.54-1.98,1.62-2.79c-.81-.89-1.22-2.1-1.22-3.63Zm.91,11.5c0,.32,.17,.69,.51,1.09,.54,.65,1.59,.97,3.14,.97,1.35,0,2.27-.28,2.74-.85,.34-.4,.51-.85,.51-1.33,0-.4-.14-.77-.41-1.09-.34-.4-1.12-.61-2.33-.61-.61,0-1.52-.08-2.74-.24-.95,.65-1.42,1.33-1.42,2.06Zm1.72-14.17c-.41,.48-.61,1.37-.61,2.66,0,1.05,.2,1.82,.61,2.3,.41,.48,.88,.73,1.42,.73s1.01-.24,1.42-.73c.41-.48,.61-1.25,.61-2.3,0-1.29-.2-2.18-.61-2.66-.41-.48-.88-.73-1.42-.73s-1.01,.24-1.42,.73Z"/><path class="cls-1" d="M162.72,24.22h-2.03V11.75c0-.65-.14-1.13-.41-1.45-.2-.24-.47-.36-.81-.36s-.68,.2-1.01,.61c-.47,.57-.71,1.45-.71,2.66v11.02h-2.03V11.62c0-.65-.1-1.09-.3-1.33-.2-.24-.44-.36-.71-.36-.41,0-.78,.2-1.12,.61-.47,.57-.71,1.45-.71,2.66v11.02h-2.03V7.63h2.03v2.06c.68-1.37,1.56-2.06,2.64-2.06s1.79,.69,2.13,2.06c.67-1.37,1.55-2.06,2.64-2.06,.81,0,1.42,.24,1.83,.73,.41,.48,.61,1.25,.61,2.3v13.56Z"/><path class="cls-1" d="M168.61,24.22c-1.22,0-2.2-.44-2.94-1.33-.68-.81-1.01-1.82-1.01-3.03,0-1.29,.37-2.38,1.12-3.27,.68-.81,1.45-1.37,2.33-1.7,2.3-.89,3.55-1.49,3.75-1.82,.34-.48,.51-.97,.51-1.45s-.2-.93-.61-1.33c-.34-.32-.95-.48-1.83-.48-.68,0-1.22,.24-1.62,.73-.54,.65-.85,1.49-.91,2.54h-2.23c.07-1.61,.54-2.95,1.42-4,.81-.97,1.93-1.45,3.35-1.45,1.62,0,2.77,.4,3.45,1.21,.67,.81,1.01,1.82,1.01,3.03v9.57c0,.97,.27,1.9,.81,2.79h-2.43c-.27-.32-.41-.93-.41-1.82-1.01,1.21-2.27,1.82-3.75,1.82Zm3.75-9.08c-.81,.57-1.76,1.05-2.84,1.45-.81,.32-1.46,.77-1.93,1.33-.34,.4-.51,.97-.51,1.7,0,.81,.17,1.41,.51,1.82,.34,.4,.88,.61,1.62,.61,1.22,0,2.27-.85,3.15-2.54v-4.36Z"/><path class="cls-1" d="M183.82,.61V3.75h-2.03V.61h2.03Zm0,23.61h-2.03V7.63h2.03V24.22Z"/><path class="cls-1" d="M196.91,24.22h-2.03V.61h2.03V24.22Z"/><path class="cls-1" d="M206.85,21.55v2.66h-2.33v-2.66h2.33Z"/><path class="cls-1" d="M223.59,10.54c-.41-.48-.91-.73-1.52-.73-.75,0-1.42,.36-2.03,1.09-.81,.97-1.22,2.79-1.22,5.45,0,2.18,.37,3.71,1.12,4.6,.61,.73,1.28,1.09,2.03,1.09,.68,0,1.28-.32,1.83-.97,.68-.81,.98-2.1,.91-3.88h2.33c.07,2.26-.44,4.04-1.52,5.33-.95,1.13-2.13,1.7-3.55,1.7s-2.67-.65-3.75-1.94c-1.15-1.37-1.72-3.35-1.72-5.93,0-2.99,.64-5.25,1.93-6.78,1.08-1.29,2.3-1.94,3.65-1.94s2.44,.48,3.25,1.45c.88,1.05,1.35,2.46,1.42,4.24h-2.23c-.14-1.29-.44-2.22-.91-2.79Z"/><path class="cls-1" d="M234.85,7.63c1.42,0,2.67,.65,3.75,1.94,1.08,1.29,1.62,3.43,1.62,6.42s-.54,5.01-1.62,6.3c-1.08,1.29-2.33,1.94-3.75,1.94-1.49,0-2.77-.65-3.86-1.94-1.08-1.29-1.62-3.39-1.62-6.3s.54-5.13,1.62-6.42c1.08-1.29,2.37-1.94,3.86-1.94Zm-2.13,3.27c-.75,.89-1.12,2.58-1.12,5.09s.37,4.08,1.12,4.96c.61,.73,1.32,1.09,2.13,1.09,.74,0,1.42-.36,2.03-1.09,.74-.89,1.12-2.54,1.12-4.96s-.37-4.2-1.12-5.09c-.61-.73-1.29-1.09-2.03-1.09-.81,0-1.52,.36-2.13,1.09Z"/><path class="cls-1" d="M253.62,24.22h-2.03V11.75c0-.65-.14-1.13-.41-1.45-.2-.24-.47-.36-.81-.36s-.68,.2-1.01,.61c-.47,.57-.71,1.45-.71,2.66v11.02h-2.03V11.62c0-.65-.1-1.09-.3-1.33-.2-.24-.44-.36-.71-.36-.41,0-.78,.2-1.12,.61-.47,.57-.71,1.45-.71,2.66v11.02h-2.03V7.63h2.03v2.06c.68-1.37,1.56-2.06,2.64-2.06s1.79,.69,2.13,2.06c.67-1.37,1.55-2.06,2.64-2.06,.81,0,1.42,.24,1.83,.73,.41,.48,.61,1.25,.61,2.3v13.56Z"/></g></g></svg>
